STARTFONT 2.3
FONT -FontForge-Shadows Into Light-Book-R-Normal--18-180-72-72-P-75-ISO10646-1
SIZE 18 72 72  2
FONTBOUNDINGBOX 26 29 -3 -8
COMMENT "Generated by fontforge, http://fontforge.sourceforge.net"
COMMENT "Copyright (c) 2010, Kimberly Geswein (kimberlygeswein.com)"
STARTPROPERTIES 40
FOUNDRY "FontForge"
FAMILY_NAME "Shadows Into Light"
WEIGHT_NAME "Book"
SLANT "R"
SETWIDTH_NAME "Normal"
ADD_STYLE_NAME ""
PIXEL_SIZE 18
POINT_SIZE 180
RESOLUTION_X 72
RESOLUTION_Y 72
SPACING "P"
AVERAGE_WIDTH 75
CHARSET_REGISTRY "ISO10646"
CHARSET_ENCODING "1"
FONTNAME_REGISTRY ""
CHARSET_COLLECTIONS "ISO8859-2 ISO8859-9 ISO8859-4 ISO10646-1"
BITS_PER_PIXEL 2
FONT_NAME "ShadowsIntoLight"
FACE_NAME "Shadows Into Light"
COPYRIGHT "Copyright (c) 2010, Kimberly Geswein (kimberlygeswein.com)"
FONT_VERSION "001.000"
FONT_ASCENT 14
FONT_DESCENT 4
UNDERLINE_POSITION 0
UNDERLINE_THICKNESS 0
X_HEIGHT 10
CAP_HEIGHT 12
RAW_ASCENT 799
RAW_DESCENT 200
NORM_SPACE 8
RELATIVE_WEIGHT 40
RELATIVE_SETWIDTH 50
SUPERSCRIPT_X 0
SUPERSCRIPT_Y 8
SUPERSCRIPT_SIZE 11
SUBSCRIPT_X 0
SUBSCRIPT_Y 2
SUBSCRIPT_SIZE 11
AVG_LOWERCASE_WIDTH 68
AVG_UPPERCASE_WIDTH 88
ENDPROPERTIES
CHARS 352
STARTCHAR space
ENCODING 32
SWIDTH 450 0
DWIDTH 8 0
BBX 1 1 0 0
BITMAP
00
ENDCHAR
STARTCHAR exclam
ENCODING 33
SWIDTH 137 0
DWIDTH 2 0
BBX 2 15 0 0
BITMAP
50
90
90
90
90
90
90
90
90
00
00
00
00
00
20
ENDCHAR
STARTCHAR quotedbl
ENCODING 34
SWIDTH 212 0
DWIDTH 4 0
BBX 4 5 0 9
BITMAP
54
59
69
69
20
ENDCHAR
STARTCHAR numbersign
ENCODING 35
SWIDTH 450 0
DWIDTH 8 0
BBX 7 10 1 2
BITMAP
0100
1140
3180
26D0
BA80
6598
25E0
2AC0
B880
5440
ENDCHAR
STARTCHAR dollar
ENCODING 36
SWIDTH 445 0
DWIDTH 8 0
BBX 8 16 0 -2
BITMAP
0140
0240
0290
0790
1A40
6240
D240
AAE4
0585
0185
00A4
02D0
05C0
0080
0090
0050
ENDCHAR
STARTCHAR percent
ENCODING 37
SWIDTH 450 0
DWIDTH 8 0
BBX 8 14 0 0
BITMAP
0030
1460
6890
9480
98C0
6180
0240
020D
021A
021A
051D
0500
0800
0400
ENDCHAR
STARTCHAR ampersand
ENCODING 38
SWIDTH 356 0
DWIDTH 6 0
BBX 6 8 0 2
BITMAP
0200
0200
0210
2A90
8740
8B00
A600
0200
ENDCHAR
STARTCHAR quotesingle
ENCODING 39
SWIDTH 155 0
DWIDTH 3 0
BBX 2 5 0 6
BITMAP
60
60
60
20
10
ENDCHAR
STARTCHAR parenleft
ENCODING 40
SWIDTH 291 0
DWIDTH 5 0
BBX 5 15 0 0
BITMAP
0080
0240
0600
0C00
1400
2000
6000
5000
9000
9000
9000
5000
2000
2800
0A00
ENDCHAR
STARTCHAR parenright
ENCODING 41
SWIDTH 241 0
DWIDTH 4 0
BBX 4 14 0 0
BITMAP
40
60
18
09
05
02
02
02
02
02
06
09
08
10
ENDCHAR
STARTCHAR asterisk
ENCODING 42
SWIDTH 481 0
DWIDTH 9 0
BBX 8 9 0 1
BITMAP
0200
0224
5260
2FEA
1BD0
6BA8
1D45
3480
0080
ENDCHAR
STARTCHAR plus
ENCODING 43
SWIDTH 466 0
DWIDTH 8 0
BBX 8 8 0 2
BITMAP
0200
0200
0200
026A
1790
5700
0200
0200
ENDCHAR
STARTCHAR comma
ENCODING 44
SWIDTH 112 0
DWIDTH 2 0
BBX 2 4 0 -2
BITMAP
60
60
60
50
ENDCHAR
STARTCHAR hyphen
ENCODING 45
SWIDTH 399 0
DWIDTH 7 0
BBX 7 3 0 3
BITMAP
0068
1B90
6400
ENDCHAR
STARTCHAR period
ENCODING 46
SWIDTH 128 0
DWIDTH 2 0
BBX 2 1 0 0
BITMAP
60
ENDCHAR
STARTCHAR slash
ENCODING 47
SWIDTH 306 0
DWIDTH 6 0
BBX 5 15 0 -2
BITMAP
0040
0080
0140
0200
0200
0500
0900
0800
1800
2400
2000
6000
5000
8000
4000
ENDCHAR
STARTCHAR zero
ENCODING 48
SWIDTH 308 0
DWIDTH 6 0
BBX 5 10 0 0
BITMAP
0900
2540
2080
5080
5080
5080
6080
2080
2240
1E00
ENDCHAR
STARTCHAR one
ENCODING 49
SWIDTH 112 0
DWIDTH 2 0
BBX 2 11 0 0
BITMAP
50
50
50
50
50
50
50
50
50
50
50
ENDCHAR
STARTCHAR two
ENCODING 50
SWIDTH 512 0
DWIDTH 9 0
BBX 9 11 0 0
BITMAP
014000
0AC000
245000
505000
009000
008000
008000
024000
030640
0AA900
090000
ENDCHAR
STARTCHAR three
ENCODING 51
SWIDTH 461 0
DWIDTH 8 0
BBX 8 13 0 0
BITMAP
0040
1AA0
A060
0080
0240
0BA4
1E06
1003
0006
0009
0034
01D0
0240
ENDCHAR
STARTCHAR four
ENCODING 52
SWIDTH 503 0
DWIDTH 9 0
BBX 9 14 0 0
BITMAP
002400
007400
00B400
01E400
026400
062400
0C2400
247E40
BA6400
002400
002400
002400
002400
002400
ENDCHAR
STARTCHAR five
ENCODING 53
SWIDTH 478 0
DWIDTH 9 0
BBX 8 13 0 0
BITMAP
0001
71A9
B900
7000
6000
61A0
6624
7414
1024
0060
00D0
0240
0200
ENDCHAR
STARTCHAR six
ENCODING 54
SWIDTH 375 0
DWIDTH 7 0
BBX 7 15 0 0
BITMAP
0400
0800
1800
2400
2000
2000
2000
6000
50B4
9354
9520
9820
6480
3580
1E00
ENDCHAR
STARTCHAR seven
ENCODING 55
SWIDTH 458 0
DWIDTH 8 0
BBX 8 14 0 0
BITMAP
0004
1AFE
550D
0018
0024
0020
0020
0020
0050
0050
0090
0090
0060
0060
ENDCHAR
STARTCHAR eight
ENCODING 56
SWIDTH 333 0
DWIDTH 6 0
BBX 6 13 0 0
BITMAP
0140
1AC0
2290
5050
9080
5080
2640
0F00
0B00
0880
1450
1490
1E80
ENDCHAR
STARTCHAR nine
ENCODING 57
SWIDTH 475 0
DWIDTH 9 0
BBX 8 12 0 0
BITMAP
02E8
0A1D
2439
20D5
9285
9E06
6406
0002
0002
0003
0003
0002
ENDCHAR
STARTCHAR colon
ENCODING 58
SWIDTH 120 0
DWIDTH 2 0
BBX 2 6 0 2
BITMAP
50
40
00
00
00
50
ENDCHAR
STARTCHAR semicolon
ENCODING 59
SWIDTH 121 0
DWIDTH 2 0
BBX 2 7 0 -2
BITMAP
50
00
00
60
60
60
50
ENDCHAR
STARTCHAR less
ENCODING 60
SWIDTH 409 0
DWIDTH 7 0
BBX 6 10 1 2
BITMAP
0010
0070
01D0
0A00
2800
D000
A000
1E00
02D0
0050
ENDCHAR
STARTCHAR equal
ENCODING 61
SWIDTH 433 0
DWIDTH 8 0
BBX 8 6 0 1
BITMAP
0014
2BE4
1400
006D
6A40
1000
ENDCHAR
STARTCHAR greater
ENCODING 62
SWIDTH 450 0
DWIDTH 8 0
BBX 6 10 1 2
BITMAP
9000
7800
0B40
00A0
0030
0090
0740
1D00
B400
8000
ENDCHAR
STARTCHAR question
ENCODING 63
SWIDTH 445 0
DWIDTH 8 0
BBX 8 17 0 0
BITMAP
0054
2E59
A406
0009
0018
0074
01D0
0340
0900
0A10
0290
0000
0000
0000
0000
0000
0240
ENDCHAR
STARTCHAR at
ENCODING 64
SWIDTH 945 0
DWIDTH 17 0
BBX 17 17 0 0
BITMAP
0000040000
0001EA8000
001D006000
0060002400
0180500800
0202A00C00
0909600800
1820E00800
2492600800
20C6242400
61981A9000
A190000000
6000000140
7000000740
3400006800
1E40168000
01BFE40000
ENDCHAR
STARTCHAR A
ENCODING 65
SWIDTH 390 0
DWIDTH 7 0
BBX 9 14 0 0
BITMAP
040000
1C0000
1D0000
2A0000
264000
258000
34C000
309640
30B540
36A000
743000
602400
501800
500800
ENDCHAR
STARTCHAR B
ENCODING 66
SWIDTH 537 0
DWIDTH 10 0
BBX 10 13 0 0
BITMAP
01F800
A90C00
742400
306000
319A80
279090
2E0080
280200
140900
182800
08A000
0D8000
080000
ENDCHAR
STARTCHAR C
ENCODING 67
SWIDTH 487 0
DWIDTH 9 0
BBX 9 13 0 0
BITMAP
02F000
061400
0C0000
180000
240000
300000
200000
600000
500340
900600
501C00
606000
1F8000
ENDCHAR
STARTCHAR D
ENCODING 68
SWIDTH 554 0
DWIDTH 10 0
BBX 10 13 0 0
BITMAP
095000
2E6A40
680090
180060
0C0050
0C0080
0C0180
080200
080900
082800
08A000
068000
020000
ENDCHAR
STARTCHAR E
ENCODING 69
SWIDTH 474 0
DWIDTH 9 0
BBX 8 13 0 0
BITMAP
6068
7B80
3800
3000
3004
2064
2640
2800
2401
2419
2464
2A40
2800
ENDCHAR
STARTCHAR F
ENCODING 70
SWIDTH 428 0
DWIDTH 8 0
BBX 8 13 0 0
BITMAP
0005
60B4
6B40
7400
6000
6000
6018
61A0
7A00
7400
3000
3000
2000
ENDCHAR
STARTCHAR G
ENCODING 71
SWIDTH 591 0
DWIDTH 11 0
BBX 10 14 0 -2
BITMAP
001900
00A400
024000
060000
0C0010
140BE0
2001D0
6002C0
5007C0
901DC0
75B4C0
1A40C0
0000C0
000080
ENDCHAR
STARTCHAR H
ENCODING 72
SWIDTH 424 0
DWIDTH 8 0
BBX 7 12 0 0
BITMAP
5020
5024
6024
6024
6024
6078
6698
7908
700C
200C
200C
2008
ENDCHAR
STARTCHAR I
ENCODING 73
SWIDTH 153 0
DWIDTH 3 0
BBX 2 14 1 0
BITMAP
40
C0
C0
80
80
80
90
90
90
90
90
90
90
50
ENDCHAR
STARTCHAR J
ENCODING 74
SWIDTH 371 0
DWIDTH 7 0
BBX 6 14 0 -1
BITMAP
0080
0080
0090
0090
0060
0060
0060
0030
0030
0030
4020
8020
2020
1A90
ENDCHAR
STARTCHAR K
ENCODING 75
SWIDTH 524 0
DWIDTH 9 0
BBX 9 12 0 0
BITMAP
600400
601800
207000
309000
318000
260000
2D0000
2C0000
2D5540
1AAA80
180000
080000
ENDCHAR
STARTCHAR L
ENCODING 76
SWIDTH 537 0
DWIDTH 10 0
BBX 10 11 0 0
BITMAP
600000
600000
700000
700000
700000
700000
700000
7001D0
701D00
36E000
390000
ENDCHAR
STARTCHAR M
ENCODING 77
SWIDTH 682 0
DWIDTH 12 0
BBX 12 14 0 0
BITMAP
600020
780034
690074
270094
224098
218158
309248
307208
302908
241C08
240008
240009
24000A
240005
ENDCHAR
STARTCHAR N
ENCODING 78
SWIDTH 541 0
DWIDTH 10 0
BBX 9 14 0 0
BITMAP
000200
000240
500240
740240
7C0140
7A0140
324180
30D180
307180
241980
240A80
240280
1801C0
140000
ENDCHAR
STARTCHAR O
ENCODING 79
SWIDTH 382 0
DWIDTH 7 0
BBX 7 12 0 0
BITMAP
07D0
0D74
2424
3018
6018
6018
9024
9024
9030
90A0
65C0
2E00
ENDCHAR
STARTCHAR P
ENCODING 80
SWIDTH 508 0
DWIDTH 9 0
BBX 9 15 0 0
BITMAP
005400
2AAB40
780180
640180
240300
241D00
24A000
2F4000
280000
240000
240000
240000
140000
140000
140000
ENDCHAR
STARTCHAR Q
ENCODING 81
SWIDTH 512 0
DWIDTH 9 0
BBX 9 14 0 0
BITMAP
055400
0F5900
1C0200
240200
300200
600240
500240
502240
502600
501A00
600A00
300A00
181B40
07D140
ENDCHAR
STARTCHAR R
ENCODING 82
SWIDTH 503 0
DWIDTH 9 0
BBX 9 14 0 0
BITMAP
71A900
7A5780
740240
600900
606000
664000
780000
740000
6B4000
61B400
601B40
600140
600000
500000
ENDCHAR
STARTCHAR S
ENCODING 83
SWIDTH 541 0
DWIDTH 10 0
BBX 10 13 0 0
BITMAP
00AD00
064400
180000
300000
900000
900000
A00000
2A5400
005A80
0000D0
000740
01A400
050000
ENDCHAR
STARTCHAR T
ENCODING 84
SWIDTH 595 0
DWIDTH 11 0
BBX 13 13 0 0
BITMAP
00155A40
1ABEA400
65180000
00180000
000C0000
000C0000
000C0000
00090000
00090000
00090000
00060000
00060000
00020000
ENDCHAR
STARTCHAR U
ENCODING 85
SWIDTH 450 0
DWIDTH 8 0
BBX 8 13 0 -2
BITMAP
5009
600A
600D
600D
601D
601D
602D
6039
2065
3586
1A06
0002
0002
ENDCHAR
STARTCHAR V
ENCODING 86
SWIDTH 524 0
DWIDTH 9 0
BBX 9 13 0 0
BITMAP
0000C0
000180
400180
600240
300300
280700
0C0600
0A0900
070D00
024C00
01D800
00B800
002400
ENDCHAR
STARTCHAR W
ENCODING 87
SWIDTH 878 0
DWIDTH 16 0
BBX 15 15 0 -1
BITMAP
00000004
0000000C
00000008
6001C018
7002D024
2402A030
18063020
1C092460
0D081890
0A180C80
06240680
07300380
03A00140
01D00000
00400000
ENDCHAR
STARTCHAR X
ENCODING 88
SWIDTH 461 0
DWIDTH 8 0
BBX 8 13 0 0
BITMAP
0001
2005
2408
1824
0D20
0690
0380
0380
06D0
0C60
2424
6018
0008
ENDCHAR
STARTCHAR Y
ENCODING 89
SWIDTH 483 0
DWIDTH 9 0
BBX 9 14 0 0
BITMAP
000140
000200
400200
500600
340900
1C0C00
071800
02F400
00B000
00A000
009000
00C000
018000
024000
ENDCHAR
STARTCHAR Z
ENCODING 90
SWIDTH 670 0
DWIDTH 12 0
BBX 12 13 0 0
BITMAP
155550
2AAAF0
0001D0
000340
000A00
002800
007000
00D000
024000
0A0000
180000
755555
7FEAA9
ENDCHAR
STARTCHAR bracketleft
ENCODING 91
SWIDTH 470 0
DWIDTH 8 0
BBX 8 22 0 -2
BITMAP
6AA8
A000
6000
6000
6000
6000
2000
2000
2000
2000
2000
2400
2400
1400
1400
1800
1800
1800
1800
1801
1EA9
0A40
ENDCHAR
STARTCHAR backslash
ENCODING 92
SWIDTH 554 0
DWIDTH 10 0
BBX 10 18 0 0
BITMAP
900000
300000
140000
080000
050000
030000
024000
00C000
009000
007000
002400
001800
000900
000600
000340
000180
0000D0
0000A0
ENDCHAR
STARTCHAR bracketright
ENCODING 93
SWIDTH 512 0
DWIDTH 9 0
BBX 9 23 0 -2
BITMAP
AFEF00
500700
000700
000700
000700
000700
000300
000300
000300
000300
000300
000300
000300
000200
000240
000240
000240
000240
000240
000280
000280
001B80
00A900
ENDCHAR
STARTCHAR asciicircum
ENCODING 94
SWIDTH 390 0
DWIDTH 7 0
BBX 7 5 0 12
BITMAP
0600
0A40
1890
2024
5004
ENDCHAR
STARTCHAR underscore
ENCODING 95
SWIDTH 612 0
DWIDTH 11 0
BBX 11 3 0 0
BITMAP
0006B4
06FA40
B94000
ENDCHAR
STARTCHAR grave
ENCODING 96
SWIDTH 155 0
DWIDTH 3 0
BBX 2 2 0 11
BITMAP
90
30
ENDCHAR
STARTCHAR a
ENCODING 97
SWIDTH 366 0
DWIDTH 7 0
BBX 6 10 0 0
BITMAP
0190
07A0
0DA0
28A0
30E0
62A0
9730
CD20
E820
6010
ENDCHAR
STARTCHAR b
ENCODING 98
SWIDTH 442 0
DWIDTH 8 0
BBX 8 15 0 0
BITMAP
3000
3000
3000
3000
3000
6010
61F8
6A0D
7809
7009
601C
6034
61E0
6B40
7800
ENDCHAR
STARTCHAR c
ENCODING 99
SWIDTH 390 0
DWIDTH 7 0
BBX 7 11 0 0
BITMAP
0600
1A40
3540
3040
6000
5000
9000
5024
5030
20A0
1F80
ENDCHAR
STARTCHAR d
ENCODING 100
SWIDTH 316 0
DWIDTH 6 0
BBX 5 18 0 -2
BITMAP
0080
00C0
00C0
0080
0080
0080
0180
1EC0
34C0
60C0
90C0
81C0
82C0
8280
9980
6480
0080
0040
ENDCHAR
STARTCHAR e
ENCODING 101
SWIDTH 461 0
DWIDTH 8 0
BBX 8 10 0 0
BITMAP
0140
0AB0
1C34
2590
7E00
F002
700A
2028
20A0
1E40
ENDCHAR
STARTCHAR f
ENCODING 102
SWIDTH 345 0
DWIDTH 6 0
BBX 6 16 0 0
BITMAP
0740
0EC0
0C40
1C00
1C00
1800
1810
19E0
2E40
6800
0800
0C00
0C00
0C00
0C00
0800
ENDCHAR
STARTCHAR g
ENCODING 103
SWIDTH 437 0
DWIDTH 8 0
BBX 8 18 0 -8
BITMAP
01A4
0778
0838
24AC
20DC
625C
930C
990C
780D
000D
000D
000C
000C
0018
0024
0060
06D0
1A00
ENDCHAR
STARTCHAR h
ENCODING 104
SWIDTH 466 0
DWIDTH 8 0
BBX 8 13 0 0
BITMAP
6000
6000
6000
6000
6069
61E6
6387
6707
6903
7C03
7403
7003
5003
ENDCHAR
STARTCHAR i
ENCODING 105
SWIDTH 132 0
DWIDTH 2 0
BBX 2 13 0 0
BITMAP
50
00
00
60
60
60
60
60
60
60
60
60
60
ENDCHAR
STARTCHAR j
ENCODING 106
SWIDTH 112 0
DWIDTH 2 0
BBX 5 20 -3 -6
BITMAP
0140
0000
0000
0000
0000
0140
0140
0240
0140
0180
0180
0180
0180
0080
00C0
00C0
00C0
4180
9240
1A00
ENDCHAR
STARTCHAR k
ENCODING 107
SWIDTH 428 0
DWIDTH 8 0
BBX 7 15 0 -1
BITMAP
2000
3000
3000
3004
701C
7038
60B0
61D0
6340
6E00
7800
7D00
62E4
9018
4000
ENDCHAR
STARTCHAR l
ENCODING 108
SWIDTH 137 0
DWIDTH 2 0
BBX 2 15 0 0
BITMAP
90
50
50
60
20
20
20
20
20
20
30
30
30
30
20
ENDCHAR
STARTCHAR m
ENCODING 109
SWIDTH 579 0
DWIDTH 10 0
BBX 10 11 0 0
BITMAP
500000
600000
624380
67CBC0
2ACCC0
289890
2C7490
387090
342090
340060
200010
ENDCHAR
STARTCHAR n
ENCODING 110
SWIDTH 483 0
DWIDTH 9 0
BBX 8 11 0 0
BITMAP
0014
50BC
61C5
6346
6306
7603
3903
3C03
3803
3803
2401
ENDCHAR
STARTCHAR o
ENCODING 111
SWIDTH 266 0
DWIDTH 5 0
BBX 5 10 0 0
BITMAP
2900
3600
6240
5140
9140
9240
9240
9300
AA00
7800
ENDCHAR
STARTCHAR p
ENCODING 112
SWIDTH 482 0
DWIDTH 9 0
BBX 9 14 0 -5
BITMAP
90AA00
5A4240
780300
600900
502400
61D000
6B4000
780000
600000
600000
600000
500000
500000
500000
ENDCHAR
STARTCHAR q
ENCODING 113
SWIDTH 408 0
DWIDTH 7 0
BBX 8 14 0 -5
BITMAP
0040
07A0
0930
2434
2074
50A4
9198
6A58
140C
000C
0008
0009
0009
0006
ENDCHAR
STARTCHAR r
ENCODING 114
SWIDTH 396 0
DWIDTH 7 0
BBX 7 9 0 0
BITMAP
51F8
6740
6A00
2900
3900
2C00
2C00
1C00
1800
ENDCHAR
STARTCHAR s
ENCODING 115
SWIDTH 366 0
DWIDTH 7 0
BBX 7 10 0 -1
BITMAP
06D0
2800
7000
9000
A6F0
2964
0070
01D0
0B40
0400
ENDCHAR
STARTCHAR t
ENCODING 116
SWIDTH 268 0
DWIDTH 5 0
BBX 6 15 -1 -1
BITMAP
0800
0C00
0C00
0C00
0EA0
2E40
AC00
0C00
0C00
0C00
0C00
0900
0900
0900
0400
ENDCHAR
STARTCHAR u
ENCODING 117
SWIDTH 387 0
DWIDTH 7 0
BBX 7 9 0 0
BITMAP
5010
6020
6060
6060
6060
60A0
21F0
32B0
1E24
ENDCHAR
STARTCHAR v
ENCODING 118
SWIDTH 354 0
DWIDTH 6 0
BBX 6 10 0 0
BITMAP
0020
0070
4070
6070
3460
1C60
0960
07A0
02E0
00A0
ENDCHAR
STARTCHAR w
ENCODING 119
SWIDTH 566 0
DWIDTH 10 0
BBX 10 9 0 0
BITMAP
50D090
70F090
25A490
198C90
0D8690
0B8290
0781D0
034060
014000
ENDCHAR
STARTCHAR x
ENCODING 120
SWIDTH 454 0
DWIDTH 8 0
BBX 8 13 0 -2
BITMAP
0090
00D0
40C0
B0C0
2880
0B80
03C0
03A0
0718
0606
0900
0C00
0400
ENDCHAR
STARTCHAR y
ENCODING 121
SWIDTH 363 0
DWIDTH 7 0
BBX 6 17 0 -7
BITMAP
0010
0020
A020
3420
1830
0930
0730
02F0
00F0
0070
0030
0020
0060
0060
0060
0050
0050
ENDCHAR
STARTCHAR z
ENCODING 122
SWIDTH 618 0
DWIDTH 11 0
BBX 12 9 0 0
BITMAP
006C00
1BAC00
642800
007000
009000
00C000
024014
035AF9
03E900
ENDCHAR
STARTCHAR braceleft
ENCODING 123
SWIDTH 348 0
DWIDTH 6 0
BBX 6 18 0 -2
BITMAP
0140
0A60
1800
2400
1400
0800
0900
7800
2400
0C00
B800
9000
8000
8000
9000
7400
1E40
0140
ENDCHAR
STARTCHAR bar
ENCODING 124
SWIDTH 137 0
DWIDTH 2 0
BBX 2 15 0 0
BITMAP
90
50
50
60
20
20
20
20
20
20
30
30
30
30
20
ENDCHAR
STARTCHAR braceright
ENCODING 125
SWIDTH 348 0
DWIDTH 6 0
BBX 6 17 0 -2
BITMAP
A900
4740
0140
0140
0200
0600
0680
01C0
0200
0780
01D0
0060
0060
0050
00C0
0780
2D00
ENDCHAR
STARTCHAR asciitilde
ENCODING 126
SWIDTH 458 0
DWIDTH 8 0
BBX 8 3 0 10
BITMAP
1A05
729D
10B4
ENDCHAR
STARTCHAR nonbreakingspace
ENCODING 160
SWIDTH 450 0
DWIDTH 8 0
BBX 1 1 0 0
BITMAP
00
ENDCHAR
STARTCHAR exclamdown
ENCODING 161
SWIDTH 137 0
DWIDTH 2 0
BBX 2 12 0 -3
BITMAP
10
00
00
00
00
90
90
90
50
50
50
50
ENDCHAR
STARTCHAR cent
ENCODING 162
SWIDTH 394 0
DWIDTH 7 0
BBX 7 14 0 -1
BITMAP
0100
0600
0600
1BC0
3650
3200
6200
5200
9200
5224
5230
22A0
1F80
0240
ENDCHAR
STARTCHAR sterling
ENCODING 163
SWIDTH 539 0
DWIDTH 10 0
BBX 9 12 0 0
BITMAP
002F40
00A180
024000
020000
1AA000
AE4000
0C0000
0C0000
0C0000
080000
08BF80
0E4140
ENDCHAR
STARTCHAR currency
ENCODING 164
SWIDTH 500 0
DWIDTH 9 0
BBX 7 11 1 1
BITMAP
0014
2134
2FE0
2890
2450
2460
2460
29D0
ABD0
C060
4000
ENDCHAR
STARTCHAR yen
ENCODING 165
SWIDTH 478 0
DWIDTH 9 0
BBX 7 15 1 0
BITMAP
0014
6034
34B0
28D0
0E80
0B40
0700
0300
5BF4
6B40
17A0
AB50
0300
0300
0200
ENDCHAR
STARTCHAR brokenbar
ENCODING 166
SWIDTH 137 0
DWIDTH 2 0
BBX 2 15 0 0
BITMAP
90
50
50
60
20
10
10
20
20
20
30
30
30
30
20
ENDCHAR
STARTCHAR section
ENCODING 167
SWIDTH 366 0
DWIDTH 7 0
BBX 7 15 0 -1
BITMAP
0140
0A80
2400
6000
9040
ABF0
3830
70A0
9180
ABF0
2964
0070
01D0
0B40
0400
ENDCHAR
STARTCHAR dieresis
ENCODING 168
SWIDTH 306 0
DWIDTH 6 0
BBX 4 2 1 12
BITMAP
41
95
ENDCHAR
STARTCHAR copyright
ENCODING 169
SWIDTH 485 0
DWIDTH 9 0
BBX 9 12 0 0
BITMAP
02F800
0A0A00
1C4300
26A240
261240
650240
990740
961F00
92A900
901800
75A000
2F8000
ENDCHAR
STARTCHAR ordfeminine
ENCODING 170
SWIDTH 227 0
DWIDTH 4 0
BBX 4 5 0 2
BITMAP
08
25
59
96
91
ENDCHAR
STARTCHAR guillemotleft
ENCODING 171
SWIDTH 652 0
DWIDTH 12 0
BBX 10 10 1 2
BITMAP
001050
0071D0
01D740
0A2D00
28A000
D28000
A1E000
1E2D00
02D7C0
005040
ENDCHAR
STARTCHAR logicalnot
ENCODING 172
SWIDTH 539 0
DWIDTH 10 0
BBX 8 5 1 2
BITMAP
ABFA
0002
0003
0003
0002
ENDCHAR
STARTCHAR uni00AD
ENCODING 173
SWIDTH 399 0
DWIDTH 7 0
BBX 7 3 0 3
BITMAP
0068
1B90
6400
ENDCHAR
STARTCHAR registered
ENCODING 174
SWIDTH 382 0
DWIDTH 7 0
BBX 9 12 0 0
BITMAP
01E400
0A6D00
140600
2AA600
261A40
66A240
974240
95A740
951B00
900D00
747400
2F9000
ENDCHAR
STARTCHAR macron
ENCODING 175
SWIDTH 399 0
DWIDTH 7 0
BBX 7 2 0 12
BITMAP
0054
6AA4
ENDCHAR
STARTCHAR degree
ENCODING 176
SWIDTH 201 0
DWIDTH 4 0
BBX 4 3 0 7
BITMAP
28
59
68
ENDCHAR
STARTCHAR plusminus
ENCODING 177
SWIDTH 466 0
DWIDTH 8 0
BBX 7 9 0 1
BITMAP
0200
0200
0200
0264
1790
5700
0200
02A8
2954
ENDCHAR
STARTCHAR twosuperior
ENCODING 178
SWIDTH 318 0
DWIDTH 6 0
BBX 5 6 0 3
BITMAP
1800
5500
0500
0800
0440
2500
ENDCHAR
STARTCHAR threesuperior
ENCODING 179
SWIDTH 280 0
DWIDTH 5 0
BBX 5 7 0 3
BITMAP
6900
4400
1900
2480
0080
0200
0800
ENDCHAR
STARTCHAR acute
ENCODING 180
SWIDTH 155 0
DWIDTH 3 0
BBX 3 3 0 10
BITMAP
24
60
40
ENDCHAR
STARTCHAR mu
ENCODING 181
SWIDTH 387 0
DWIDTH 7 0
BBX 6 12 0 -2
BITMAP
5010
6030
6070
6070
6070
60B0
60F0
72B0
7E20
9000
9000
9000
ENDCHAR
STARTCHAR paragraph
ENCODING 182
SWIDTH 447 0
DWIDTH 8 0
BBX 8 12 0 0
BITMAP
0154
2FFC
7FD8
BFD8
6998
0098
0068
0068
0069
0069
0069
0015
ENDCHAR
STARTCHAR periodcentered
ENCODING 183
SWIDTH 128 0
DWIDTH 2 0
BBX 2 1 0 4
BITMAP
A0
ENDCHAR
STARTCHAR cedilla
ENCODING 184
SWIDTH 322 0
DWIDTH 6 0
BBX 4 7 1 -6
BITMAP
40
C0
A0
6D
07
6F
54
ENDCHAR
STARTCHAR onesuperior
ENCODING 185
SWIDTH 112 0
DWIDTH 2 0
BBX 2 6 0 3
BITMAP
50
50
50
50
50
50
ENDCHAR
STARTCHAR ordmasculine
ENCODING 186
SWIDTH 212 0
DWIDTH 4 0
BBX 4 5 0 2
BITMAP
28
51
86
85
64
ENDCHAR
STARTCHAR guillemotright
ENCODING 187
SWIDTH 625 0
DWIDTH 11 0
BBX 10 10 1 2
BITMAP
928000
79B400
0B5A40
00A1D0
003080
009240
075D00
1D7400
B5D000
810000
ENDCHAR
STARTCHAR onequarter
ENCODING 188
SWIDTH 678 0
DWIDTH 12 0
BBX 12 14 0 -1
BITMAP
005000
009000
008000
518040
5240D0
5202D0
520990
551890
5861A9
599490
140090
200090
200090
600000
ENDCHAR
STARTCHAR onehalf
ENCODING 189
SWIDTH 693 0
DWIDTH 12 0
BBX 10 14 1 -1
BITMAP
005000
008000
408000
818000
824000
821400
869800
8A4500
880800
980800
141400
202590
206400
500000
ENDCHAR
STARTCHAR threequarters
ENCODING 190
SWIDTH 868 0
DWIDTH 16 0
BBX 13 15 0 -2
BITMAP
00001000
1A802000
60802800
02006C00
0A90B800
1808D800
0009C800
00234A40
0197A800
02060800
00090800
00080800
00180800
00140000
00100000
ENDCHAR
STARTCHAR questiondown
ENCODING 191
SWIDTH 541 0
DWIDTH 10 0
BBX 8 15 1 -1
BITMAP
0080
0000
0000
0000
0000
0140
06B0
0030
00A0
0280
0900
2400
6000
601B
2AA4
ENDCHAR
STARTCHAR Agrave
ENCODING 192
SWIDTH 390 0
DWIDTH 7 0
BBX 8 16 1 0
BITMAP
2400
1C00
1400
3400
3800
6800
6500
6200
9240
919A
91E5
EAC0
E090
C060
8020
4020
ENDCHAR
STARTCHAR Aacute
ENCODING 193
SWIDTH 390 0
DWIDTH 7 0
BBX 9 17 0 0
BITMAP
090000
280000
100000
040000
1C0000
1D0000
2A0000
264000
258000
34C000
309640
30B540
36A000
743000
602400
501800
500800
ENDCHAR
STARTCHAR Acircumflex
ENCODING 194
SWIDTH 390 0
DWIDTH 7 0
BBX 10 19 -1 0
BITMAP
060000
0A4000
189000
202400
500400
010000
070000
074000
0A8000
099000
096000
0D3000
0C2590
0C2D50
0DA800
1D0C00
180900
140600
140200
ENDCHAR
STARTCHAR Atilde
ENCODING 195
SWIDTH 390 0
DWIDTH 7 0
BBX 9 18 0 0
BITMAP
681400
CA7400
42D000
000000
040000
1C0000
1D0000
2A0000
264000
258000
34C000
309640
30B540
36A000
743000
602400
501800
500800
ENDCHAR
STARTCHAR Adieresis
ENCODING 196
SWIDTH 390 0
DWIDTH 7 0
BBX 9 17 0 0
BITMAP
114000
214000
000000
040000
1C0000
1D0000
2A0000
264000
258000
34C000
309640
30B540
36A000
743000
602400
501800
500800
ENDCHAR
STARTCHAR Aring
ENCODING 197
SWIDTH 390 0
DWIDTH 7 0
BBX 9 16 0 0
BITMAP
6E0000
D20000
AB0000
1C0000
1D0000
2A0000
264000
258000
34C000
309640
30B540
36A000
743000
602400
501800
500800
ENDCHAR
STARTCHAR AE
ENCODING 198
SWIDTH 708 0
DWIDTH 13 0
BBX 13 14 0 0
BITMAP
04000000
1C206800
1D3B8000
2A280000
26640000
25A40400
34E46000
30AA4000
30BC0000
36B80140
74380A00
60286400
501E8000
50190000
ENDCHAR
STARTCHAR Ccedilla
ENCODING 199
SWIDTH 487 0
DWIDTH 9 0
BBX 9 19 0 -6
BITMAP
02F000
061400
0C0000
180000
240000
300000
200000
600000
500340
900600
501C00
606000
1F8000
060000
060000
02E000
007800
017800
029000
ENDCHAR
STARTCHAR Egrave
ENCODING 200
SWIDTH 474 0
DWIDTH 9 0
BBX 8 16 0 0
BITMAP
0900
0300
0000
6068
7B80
3800
3000
3004
2064
2640
2800
2401
2419
2464
2A40
2800
ENDCHAR
STARTCHAR Eacute
ENCODING 201
SWIDTH 474 0
DWIDTH 9 0
BBX 8 16 0 0
BITMAP
0090
0280
0100
6068
7B80
3800
3000
3004
2064
2640
2800
2401
2419
2464
2A40
2800
ENDCHAR
STARTCHAR Ecircumflex
ENCODING 202
SWIDTH 474 0
DWIDTH 9 0
BBX 8 19 0 0
BITMAP
0140
0290
0524
0809
2405
0000
6068
7B80
3800
3000
3004
2064
2640
2800
2401
2419
2464
2A40
2800
ENDCHAR
STARTCHAR Edieresis
ENCODING 203
SWIDTH 474 0
DWIDTH 9 0
BBX 8 17 0 0
BITMAP
0410
0950
0000
0000
6068
7B80
3800
3000
3004
2064
2640
2800
2401
2419
2464
2A40
2800
ENDCHAR
STARTCHAR Igrave
ENCODING 204
SWIDTH 153 0
DWIDTH 3 0
BBX 3 17 0 0
BITMAP
90
30
00
10
30
30
20
20
20
24
24
24
24
24
24
24
14
ENDCHAR
STARTCHAR Iacute
ENCODING 205
SWIDTH 153 0
DWIDTH 3 0
BBX 3 17 0 0
BITMAP
18
74
00
10
30
30
20
20
20
24
24
24
24
24
24
24
14
ENDCHAR
STARTCHAR Icircumflex
ENCODING 206
SWIDTH 153 0
DWIDTH 3 0
BBX 7 19 -2 0
BITMAP
0200
0A80
1890
2024
6004
0100
0300
0300
0200
0200
0200
0240
0240
0240
0240
0240
0240
0240
0140
ENDCHAR
STARTCHAR Idieresis
ENCODING 207
SWIDTH 153 0
DWIDTH 3 0
BBX 4 16 0 0
BITMAP
44
89
10
30
30
20
20
20
24
24
24
24
24
24
24
14
ENDCHAR
STARTCHAR Eth
ENCODING 208
SWIDTH 554 0
DWIDTH 10 0
BBX 10 13 0 0
BITMAP
095000
2E6A40
680090
180060
080050
0C0080
0C0180
0C0200
1E8900
6E6800
08A000
068000
020000
ENDCHAR
STARTCHAR Ntilde
ENCODING 209
SWIDTH 541 0
DWIDTH 10 0
BBX 9 17 0 0
BITMAP
1A0500
329D00
10B400
000200
000240
500240
740240
7C0140
7A0140
324180
30D180
307180
241980
240A80
240280
1801C0
140000
ENDCHAR
STARTCHAR Ograve
ENCODING 210
SWIDTH 382 0
DWIDTH 7 0
BBX 7 16 0 0
BITMAP
00C0
00A0
0000
0000
07D0
0D74
2424
3018
6018
6018
9024
9024
9030
90A0
65C0
2E00
ENDCHAR
STARTCHAR Oacute
ENCODING 211
SWIDTH 382 0
DWIDTH 7 0
BBX 7 15 0 0
BITMAP
0240
0A00
0400
07D0
0D74
2424
3018
6018
6018
9024
9024
9030
90A0
65C0
2E00
ENDCHAR
STARTCHAR Ocircumflex
ENCODING 212
SWIDTH 382 0
DWIDTH 7 0
BBX 7 17 0 0
BITMAP
0500
0A40
1490
2024
9014
07D0
0D74
2424
3018
6018
6018
9024
9024
9030
90A0
65C0
2E00
ENDCHAR
STARTCHAR Otilde
ENCODING 213
SWIDTH 382 0
DWIDTH 7 0
BBX 8 16 0 0
BITMAP
1A45
318D
10B4
0000
07D0
0D74
2424
3018
6018
6018
9024
9024
9030
90A0
65C0
2E00
ENDCHAR
STARTCHAR Odieresis
ENCODING 214
SWIDTH 382 0
DWIDTH 7 0
BBX 7 15 0 0
BITMAP
0110
0620
0000
07D0
0D74
2424
3018
6018
6018
9024
9024
9030
90A0
65C0
2E00
ENDCHAR
STARTCHAR multiply
ENCODING 215
SWIDTH 454 0
DWIDTH 8 0
BBX 5 7 1 2
BITMAP
4000
6080
2640
0E00
2A00
6240
0040
ENDCHAR
STARTCHAR Oslash
ENCODING 216
SWIDTH 382 0
DWIDTH 7 0
BBX 7 15 0 -2
BITMAP
0010
07E0
0DB4
24A4
3198
6158
6218
9224
9524
9830
98A0
79C0
2E00
2000
1000
ENDCHAR
STARTCHAR Ugrave
ENCODING 217
SWIDTH 450 0
DWIDTH 8 0
BBX 8 16 0 -2
BITMAP
0300
0280
0000
5009
600A
600D
600D
601D
601D
602D
6039
2065
3586
1A06
0002
0002
ENDCHAR
STARTCHAR Uacute
ENCODING 218
SWIDTH 450 0
DWIDTH 8 0
BBX 8 15 0 -2
BITMAP
0090
0180
5109
600A
600D
600D
601D
601D
602D
6039
2065
3586
1A06
0002
0002
ENDCHAR
STARTCHAR Ucircumflex
ENCODING 219
SWIDTH 450 0
DWIDTH 8 0
BBX 8 19 0 -2
BITMAP
0200
0680
0860
1418
2004
0000
5009
600A
600D
600D
601D
601D
602D
6039
2065
3586
1A06
0002
0002
ENDCHAR
STARTCHAR Udieresis
ENCODING 220
SWIDTH 450 0
DWIDTH 8 0
BBX 8 16 0 -2
BITMAP
0510
0560
0000
5009
600A
600D
600D
601D
601D
602D
6039
2065
3586
1A06
0002
0002
ENDCHAR
STARTCHAR Yacute
ENCODING 221
SWIDTH 483 0
DWIDTH 9 0
BBX 9 17 0 0
BITMAP
003000
00D000
004000
000140
000200
400200
500600
340900
1C0C00
071800
02F400
00B000
00A000
009000
00C000
018000
024000
ENDCHAR
STARTCHAR Thorn
ENCODING 222
SWIDTH 398 0
DWIDTH 7 0
BBX 7 15 0 0
BITMAP
1000
3000
6000
61A0
6A68
7818
7008
6018
6070
6180
6E00
6000
6000
6000
5000
ENDCHAR
STARTCHAR germandbls
ENCODING 223
SWIDTH 537 0
DWIDTH 10 0
BBX 10 13 0 0
BITMAP
01F800
A90C00
742400
306000
319A80
279090
2E0080
280200
140900
182800
08A000
0D8000
080000
ENDCHAR
STARTCHAR agrave
ENCODING 224
SWIDTH 366 0
DWIDTH 7 0
BBX 6 13 0 0
BITMAP
0D00
0600
0100
0190
07A0
0DA0
28A0
30E0
62A0
9730
CD20
E820
6010
ENDCHAR
STARTCHAR aacute
ENCODING 225
SWIDTH 366 0
DWIDTH 7 0
BBX 6 13 0 0
BITMAP
0180
0740
0000
0190
07A0
0DA0
28A0
30E0
62A0
9730
CD20
E820
6010
ENDCHAR
STARTCHAR acircumflex
ENCODING 226
SWIDTH 366 0
DWIDTH 7 0
BBX 7 17 0 0
BITMAP
0500
0A40
2480
2060
8014
0000
0000
0190
07A0
0DA0
28A0
30E0
62A0
9730
CD20
E820
6010
ENDCHAR
STARTCHAR atilde
ENCODING 227
SWIDTH 366 0
DWIDTH 7 0
BBX 7 14 0 0
BITMAP
2A04
625C
41F4
0000
0190
07A0
0DA0
28A0
30E0
62A0
9730
CD20
E820
6010
ENDCHAR
STARTCHAR adieresis
ENCODING 228
SWIDTH 366 0
DWIDTH 7 0
BBX 6 14 0 0
BITMAP
0440
1480
0000
0000
0190
07A0
0DA0
28A0
30E0
62A0
9730
CD20
E820
6010
ENDCHAR
STARTCHAR aring
ENCODING 229
SWIDTH 366 0
DWIDTH 7 0
BBX 6 12 0 0
BITMAP
0ED0
1860
0AD0
07A0
0DA0
28A0
30E0
62A0
9730
CD20
E820
6010
ENDCHAR
STARTCHAR ae
ENCODING 230
SWIDTH 705 0
DWIDTH 13 0
BBX 13 10 0 0
BITMAP
0192F400
07AA1C00
0DAC7400
28BE8000
30FD0000
62B40340
97340A00
CD242800
E829A000
60150000
ENDCHAR
STARTCHAR ccedilla
ENCODING 231
SWIDTH 390 0
DWIDTH 7 0
BBX 7 17 0 -6
BITMAP
0600
1A40
3540
3040
6000
5000
9000
5024
5030
20A0
1F80
0800
0E00
06D0
00B0
06E0
0540
ENDCHAR
STARTCHAR egrave
ENCODING 232
SWIDTH 461 0
DWIDTH 8 0
BBX 8 13 0 0
BITMAP
0300
0180
0040
0140
0AB0
1C34
2590
7E00
F002
700A
2028
20A0
1E40
ENDCHAR
STARTCHAR eacute
ENCODING 233
SWIDTH 461 0
DWIDTH 8 0
BBX 8 13 0 0
BITMAP
0060
01C0
0100
0140
0AB0
1C34
2590
7E00
F002
700A
2028
20A0
1E40
ENDCHAR
STARTCHAR ecircumflex
ENCODING 234
SWIDTH 461 0
DWIDTH 8 0
BBX 8 17 0 0
BITMAP
0240
0680
0820
1818
2004
0000
0000
0140
0AB0
1C34
2590
7E00
F002
700A
2028
20A0
1E40
ENDCHAR
STARTCHAR edieresis
ENCODING 235
SWIDTH 461 0
DWIDTH 8 0
BBX 8 14 0 0
BITMAP
0110
0560
0000
0000
0140
0AB0
1C34
2590
7E00
F002
700A
2028
20A0
1E40
ENDCHAR
STARTCHAR igrave
ENCODING 236
SWIDTH 132 0
DWIDTH 2 0
BBX 2 15 0 0
BITMAP
40
D0
60
00
00
60
60
60
60
60
60
60
60
60
60
ENDCHAR
STARTCHAR iacute
ENCODING 237
SWIDTH 132 0
DWIDTH 2 0
BBX 3 15 0 0
BITMAP
28
60
00
00
00
60
60
60
60
60
60
60
60
60
60
ENDCHAR
STARTCHAR icircumflex
ENCODING 238
SWIDTH 132 0
DWIDTH 2 0
BBX 6 17 -2 0
BITMAP
0900
1A00
2080
6060
8010
0000
0000
0600
0600
0600
0600
0600
0600
0600
0600
0600
0600
ENDCHAR
STARTCHAR idieresis
ENCODING 239
SWIDTH 132 0
DWIDTH 2 0
BBX 4 14 -1 0
BITMAP
11
52
00
00
18
18
18
18
18
18
18
18
18
18
ENDCHAR
STARTCHAR eth
ENCODING 240
SWIDTH 481 0
DWIDTH 9 0
BBX 7 11 1 0
BITMAP
0900
0700
0244
1BE8
0090
1460
7F60
91A0
80E0
61C0
2E40
ENDCHAR
STARTCHAR ntilde
ENCODING 241
SWIDTH 483 0
DWIDTH 9 0
BBX 8 15 0 0
BITMAP
0A42
28DA
1078
0000
0014
50BC
61C5
6346
6306
7603
3903
3C03
3803
3803
2401
ENDCHAR
STARTCHAR ograve
ENCODING 242
SWIDTH 266 0
DWIDTH 5 0
BBX 5 13 0 0
BITMAP
2400
1C00
0400
2900
3600
6240
5140
9140
9240
9240
9300
AA00
7800
ENDCHAR
STARTCHAR oacute
ENCODING 243
SWIDTH 266 0
DWIDTH 5 0
BBX 5 13 0 0
BITMAP
0600
0D00
0400
2900
3600
6240
5140
9140
9240
9240
9300
AA00
7800
ENDCHAR
STARTCHAR ocircumflex
ENCODING 244
SWIDTH 266 0
DWIDTH 5 0
BBX 7 17 -1 0
BITMAP
0500
0A40
2490
2024
9014
0000
0000
0A40
0D80
1890
1450
2450
2490
2490
24C0
2A80
1E00
ENDCHAR
STARTCHAR otilde
ENCODING 245
SWIDTH 266 0
DWIDTH 5 0
BBX 7 14 -1 0
BITMAP
2A04
625C
41F4
0000
0A40
0D80
1890
1450
2450
2490
2490
24C0
2A80
1E00
ENDCHAR
STARTCHAR odieresis
ENCODING 246
SWIDTH 266 0
DWIDTH 5 0
BBX 5 14 0 0
BITMAP
1100
6200
0000
0000
2900
3600
6240
5140
9140
9240
9240
9300
AA00
7800
ENDCHAR
STARTCHAR divide
ENCODING 247
SWIDTH 345 0
DWIDTH 6 0
BBX 6 6 0 2
BITMAP
0500
0400
5AA0
1500
0000
0500
ENDCHAR
STARTCHAR oslash
ENCODING 248
SWIDTH 266 0
DWIDTH 5 0
BBX 5 13 0 -2
BITMAP
0040
2A80
3700
6340
5640
9940
9A40
A640
B300
AA00
B800
8000
4000
ENDCHAR
STARTCHAR ugrave
ENCODING 249
SWIDTH 387 0
DWIDTH 7 0
BBX 7 13 0 0
BITMAP
0900
0700
0000
0000
5010
6020
6060
6060
6060
60A0
21F0
32B0
1E24
ENDCHAR
STARTCHAR uacute
ENCODING 250
SWIDTH 387 0
DWIDTH 7 0
BBX 7 13 0 0
BITMAP
0180
0340
0100
0000
5010
6020
6060
6060
6060
60A0
21F0
32B0
1E24
ENDCHAR
STARTCHAR ucircumflex
ENCODING 251
SWIDTH 387 0
DWIDTH 7 0
BBX 7 17 0 0
BITMAP
0500
0A40
1490
2024
5014
0000
0000
0000
5010
6020
6060
6060
6060
60A0
21F0
32B0
1E24
ENDCHAR
STARTCHAR udieresis
ENCODING 252
SWIDTH 387 0
DWIDTH 7 0
BBX 7 14 0 0
BITMAP
0440
0880
0000
0000
0000
5010
6020
6060
6060
6060
60A0
21F0
32B0
1E24
ENDCHAR
STARTCHAR yacute
ENCODING 253
SWIDTH 363 0
DWIDTH 7 0
BBX 6 20 0 -7
BITMAP
0180
0740
0000
0010
0020
A020
3420
1830
0930
0730
02F0
00F0
0070
0030
0020
0060
0060
0060
0050
0050
ENDCHAR
STARTCHAR thorn
ENCODING 254
SWIDTH 439 0
DWIDTH 8 0
BBX 8 13 0 -1
BITMAP
5000
61A8
6905
7409
6018
6060
6280
3D00
3400
6000
6000
6000
1000
ENDCHAR
STARTCHAR ydieresis
ENCODING 255
SWIDTH 363 0
DWIDTH 7 0
BBX 6 21 0 -7
BITMAP
0440
1480
0000
0000
0010
0020
A020
3420
1830
0930
0730
02F0
00F0
0070
0030
0020
0060
0060
0060
0050
0050
ENDCHAR
STARTCHAR Amacron
ENCODING 256
SWIDTH 390 0
DWIDTH 7 0
BBX 9 16 0 0
BITMAP
005000
AAA400
040000
1C0000
1D0000
2A0000
264000
258000
34C000
309640
30B540
36A000
743000
602400
501800
500800
ENDCHAR
STARTCHAR amacron
ENCODING 257
SWIDTH 366 0
DWIDTH 7 0
BBX 7 14 0 0
BITMAP
0054
AAA4
0000
0000
0190
07A0
0DA0
28A0
30E0
62A0
9730
CD20
E820
6010
ENDCHAR
STARTCHAR Abreve
ENCODING 258
SWIDTH 390 0
DWIDTH 7 0
BBX 9 17 0 0
BITMAP
20D000
1F8000
000000
040000
1C0000
1D0000
2A0000
264000
258000
34C000
309640
30B540
36A000
743000
602400
501800
500800
ENDCHAR
STARTCHAR abreve
ENCODING 259
SWIDTH 366 0
DWIDTH 7 0
BBX 6 13 0 0
BITMAP
24A0
0B80
0100
0190
07A0
0DA0
28A0
30E0
62A0
9730
CD20
E820
6010
ENDCHAR
STARTCHAR Aogonek
ENCODING 260
SWIDTH 390 0
DWIDTH 7 0
BBX 9 19 0 -5
BITMAP
040000
1C0000
1D0000
2A0000
264000
258000
34C000
309640
30B540
36A000
743000
602400
501800
500800
002400
006000
009000
007B40
001500
ENDCHAR
STARTCHAR aogonek
ENCODING 261
SWIDTH 366 0
DWIDTH 7 0
BBX 8 14 0 -4
BITMAP
0190
07A0
0DA0
28A0
30E0
62A0
9730
CD20
E820
6070
00D0
0080
00DA
0069
ENDCHAR
STARTCHAR Cacute
ENCODING 262
SWIDTH 487 0
DWIDTH 9 0
BBX 9 16 0 0
BITMAP
009000
01C000
010000
02F000
061400
0C0000
180000
240000
300000
200000
600000
500340
900600
501C00
606000
1F8000
ENDCHAR
STARTCHAR cacute
ENCODING 263
SWIDTH 390 0
DWIDTH 7 0
BBX 7 14 0 0
BITMAP
0240
0600
0400
0600
1A40
3540
3040
6000
5000
9000
5024
5030
20A0
1F80
ENDCHAR
STARTCHAR Ccircumflex
ENCODING 264
SWIDTH 487 0
DWIDTH 9 0
BBX 9 18 0 0
BITMAP
014000
029000
092000
181800
200500
02F000
061400
0C0000
180000
240000
300000
200000
600000
500340
900600
501C00
606000
1F8000
ENDCHAR
STARTCHAR ccircumflex
ENCODING 265
SWIDTH 390 0
DWIDTH 7 0
BBX 7 17 0 0
BITMAP
0500
0A40
1490
2024
5014
0000
0600
1A40
3540
3040
6000
5000
9000
5024
5030
20A0
1F80
ENDCHAR
STARTCHAR Cdotaccent
ENCODING 266
SWIDTH 487 0
DWIDTH 9 0
BBX 9 16 0 0
BITMAP
018000
000000
000000
02F000
061400
0C0000
180000
240000
300000
200000
600000
500340
900600
501C00
606000
1F8000
ENDCHAR
STARTCHAR cdotaccent
ENCODING 267
SWIDTH 390 0
DWIDTH 7 0
BBX 7 13 0 0
BITMAP
0400
0800
0600
1A40
3540
7040
6000
5000
9000
9024
5030
20A0
1F40
ENDCHAR
STARTCHAR Ccaron
ENCODING 268
SWIDTH 487 0
DWIDTH 9 0
BBX 9 17 0 0
BITMAP
100000
080900
062000
028000
02F000
061400
0C0000
180000
240000
300000
200000
600000
500340
900600
501C00
606000
1F8000
ENDCHAR
STARTCHAR ccaron
ENCODING 269
SWIDTH 390 0
DWIDTH 7 0
BBX 7 14 0 0
BITMAP
2024
1880
0600
0600
1A40
3540
3040
6000
5000
9000
5024
5030
20A0
1F80
ENDCHAR
STARTCHAR Dcaron
ENCODING 270
SWIDTH 554 0
DWIDTH 10 0
BBX 10 17 0 0
BITMAP
040000
060600
015800
00A000
095000
2E6A40
680090
180060
0C0050
0C0080
0C0180
080200
080900
082800
08A000
068000
020000
ENDCHAR
STARTCHAR Emacron
ENCODING 274
SWIDTH 474 0
DWIDTH 9 0
BBX 8 16 0 0
BITMAP
0054
6AA8
0000
6068
7B80
3800
3000
3004
2064
2640
2800
2401
2419
2464
2A40
2800
ENDCHAR
STARTCHAR emacron
ENCODING 275
SWIDTH 461 0
DWIDTH 8 0
BBX 8 14 0 0
BITMAP
0014
2AA9
0000
0000
0140
0AB0
1C34
2590
7E00
F002
700A
2028
20A0
1E40
ENDCHAR
STARTCHAR Ebreve
ENCODING 276
SWIDTH 474 0
DWIDTH 9 0
BBX 8 16 0 0
BITMAP
0924
03E0
0040
6068
7B80
3800
3000
3004
2064
2640
2800
2401
2419
2464
2A40
2800
ENDCHAR
STARTCHAR ebreve
ENCODING 277
SWIDTH 461 0
DWIDTH 8 0
BBX 8 13 0 0
BITMAP
0924
03E0
0040
0140
0AB0
1C34
2590
7E00
F002
700A
2028
20A0
1E40
ENDCHAR
STARTCHAR Edotaccent
ENCODING 278
SWIDTH 474 0
DWIDTH 9 0
BBX 8 14 0 0
BITMAP
0300
6168
7B80
3800
3000
3004
2064
2640
2800
2401
2419
2464
2A40
2800
ENDCHAR
STARTCHAR edotaccent
ENCODING 279
SWIDTH 461 0
DWIDTH 8 0
BBX 8 11 0 0
BITMAP
0180
0180
0AB0
1C34
2590
7E00
F002
700A
2028
20A0
1E40
ENDCHAR
STARTCHAR Eogonek
ENCODING 280
SWIDTH 474 0
DWIDTH 9 0
BBX 8 15 0 -2
BITMAP
6068
7B80
3800
3000
3004
2064
2640
2800
2401
2419
2474
2BC0
2980
00DA
0069
ENDCHAR
STARTCHAR eogonek
ENCODING 281
SWIDTH 461 0
DWIDTH 8 0
BBX 8 14 0 -4
BITMAP
0140
0AB0
1C34
2590
7E00
F002
700A
2028
20A0
1F80
0600
0900
0664
0190
ENDCHAR
STARTCHAR Ecaron
ENCODING 282
SWIDTH 474 0
DWIDTH 9 0
BBX 8 17 0 0
BITMAP
1000
2418
0850
0240
6068
7B80
3800
3000
3004
2064
2640
2800
2401
2419
2464
2A40
2800
ENDCHAR
STARTCHAR ecaron
ENCODING 283
SWIDTH 461 0
DWIDTH 8 0
BBX 8 15 0 0
BITMAP
1000
1418
0960
0240
0000
0140
0AB0
1C34
2590
7E00
F002
700A
2028
20A0
1E40
ENDCHAR
STARTCHAR Gcircumflex
ENCODING 284
SWIDTH 591 0
DWIDTH 11 0
BBX 10 19 0 -2
BITMAP
005000
00A400
024800
060600
080140
001900
00A400
024000
060000
0C0010
140BE0
2001D0
6002C0
5007C0
901DC0
75B4C0
1A40C0
0000C0
000080
ENDCHAR
STARTCHAR gcircumflex
ENCODING 285
SWIDTH 437 0
DWIDTH 8 0
BBX 8 25 0 -8
BITMAP
0200
0680
0860
2428
2008
0000
0000
01A4
0778
0838
24AC
20DC
625C
930C
990C
780D
000D
000D
000C
000C
0018
0024
0060
06D0
1A00
ENDCHAR
STARTCHAR Gbreve
ENCODING 286
SWIDTH 591 0
DWIDTH 11 0
BBX 10 17 0 -2
BITMAP
000100
018700
00BD00
002900
00A400
024000
060000
0C0010
140BE0
2001D0
6002C0
5007C0
901DC0
75B4C0
1A40C0
0000C0
000080
ENDCHAR
STARTCHAR gbreve
ENCODING 287
SWIDTH 437 0
DWIDTH 8 0
BBX 8 22 0 -8
BITMAP
0834
07E0
0000
0000
01A4
0778
0838
24AC
20DC
625C
930C
990C
780D
000D
000D
000C
000C
0018
0024
0060
06D0
1A00
ENDCHAR
STARTCHAR Gdotaccent
ENCODING 288
SWIDTH 591 0
DWIDTH 11 0
BBX 11 17 0 -2
BITMAP
003000
000000
000000
001A00
006400
018000
020000
090000
0806F4
2400A0
2001D0
2003D0
600A90
39B490
1A8090
000090
000050
ENDCHAR
STARTCHAR gdotaccent
ENCODING 289
SWIDTH 437 0
DWIDTH 8 0
BBX 8 20 0 -8
BITMAP
0090
0000
01A4
0778
0838
24AC
20DC
625C
930C
990C
780D
000D
000D
000C
000C
0018
0024
0060
06D0
1A00
ENDCHAR
STARTCHAR Gcommaaccent
ENCODING 290
SWIDTH 591 0
DWIDTH 11 0
BBX 10 18 0 -6
BITMAP
001900
00A400
024000
060000
0C0010
140BE0
2001D0
6002C0
5007C0
901DC0
75B4C0
1A40C0
0000C0
000080
006000
006000
006000
005000
ENDCHAR
STARTCHAR Hcircumflex
ENCODING 292
SWIDTH 424 0
DWIDTH 8 0
BBX 7 19 0 0
BITMAP
0600
0A40
1890
2024
5004
0000
0000
5020
5024
6024
6024
6024
6078
6698
7908
700C
200C
200C
2008
ENDCHAR
STARTCHAR hcircumflex
ENCODING 293
SWIDTH 466 0
DWIDTH 8 0
BBX 9 17 0 0
BITMAP
005000
00A400
018900
020240
650140
600000
600000
600000
606900
61E600
638700
670700
690300
7C0300
740300
700300
500300
ENDCHAR
STARTCHAR Hbar
ENCODING 294
SWIDTH 424 0
DWIDTH 8 0
BBX 7 12 0 0
BITMAP
5020
5024
6024
BBF8
6024
6078
6698
7908
700C
200C
200C
2008
ENDCHAR
STARTCHAR hbar
ENCODING 295
SWIDTH 466 0
DWIDTH 8 0
BBX 9 13 -1 0
BITMAP
180000
180000
180000
6AA400
A95A40
187980
18E1C0
19C1C0
1A40C0
1F00C0
1D00C0
1C00C0
1400C0
ENDCHAR
STARTCHAR Itilde
ENCODING 296
SWIDTH 153 0
DWIDTH 3 0
BBX 7 18 -2 0
BITMAP
2904
9728
41E0
0000
0100
0300
0300
0200
0200
0200
0240
0240
0240
0240
0240
0240
0240
0140
ENDCHAR
STARTCHAR itilde
ENCODING 297
SWIDTH 132 0
DWIDTH 2 0
BBX 7 14 -2 0
BITMAP
AD24
C774
0190
0000
0600
0600
0600
0600
0600
0600
0600
0600
0600
0600
ENDCHAR
STARTCHAR imacron
ENCODING 299
SWIDTH 132 0
DWIDTH 2 0
BBX 7 14 -2 0
BITMAP
0050
AAA4
0000
0000
0600
0600
0600
0600
0600
0600
0600
0600
0600
0600
ENDCHAR
STARTCHAR Ibreve
ENCODING 300
SWIDTH 153 0
DWIDTH 3 0
BBX 5 18 -1 0
BITMAP
0040
9180
2F00
0400
0400
0C00
0C00
0800
0800
0800
0900
0900
0900
0900
0900
0900
0900
0500
ENDCHAR
STARTCHAR ibreve
ENCODING 301
SWIDTH 132 0
DWIDTH 2 0
BBX 5 14 -1 0
BITMAP
9280
3E00
0400
0000
1800
1800
1800
1800
1800
1800
1800
1800
1800
1800
ENDCHAR
STARTCHAR Iogonek
ENCODING 302
SWIDTH 153 0
DWIDTH 3 0
BBX 5 18 0 -4
BITMAP
1000
3000
3000
2000
2000
2000
2400
2400
2400
2400
2400
2400
2400
3400
9000
8000
AB40
1500
ENDCHAR
STARTCHAR iogonek
ENCODING 303
SWIDTH 132 0
DWIDTH 2 0
BBX 5 17 -1 -4
BITMAP
1400
0000
0000
1800
1800
1800
1800
1800
1800
1800
1800
1800
1800
3400
6000
6140
3F40
ENDCHAR
STARTCHAR Idotaccent
ENCODING 304
SWIDTH 153 0
DWIDTH 3 0
BBX 1 16 1 0
BITMAP
C0
00
40
80
80
C0
C0
C0
C0
C0
C0
C0
C0
C0
80
80
ENDCHAR
STARTCHAR dotlessi
ENCODING 305
SWIDTH 132 0
DWIDTH 2 0
BBX 2 10 0 0
BITMAP
60
60
60
60
60
60
60
60
60
60
ENDCHAR
STARTCHAR Jcircumflex
ENCODING 308
SWIDTH 371 0
DWIDTH 7 0
BBX 8 19 0 -1
BITMAP
0140
0290
0924
0809
2405
0080
0080
0090
0090
0060
0060
0060
0030
0030
0030
4020
8020
2020
1A90
ENDCHAR
STARTCHAR jcircumflex
ENCODING 309
SWIDTH 112 0
DWIDTH 2 0
BBX 7 23 -3 -6
BITMAP
0200
0680
0860
1418
2008
0000
0000
0000
0140
0140
0240
0140
0180
0180
0180
0180
0080
00C0
00C0
00C0
4180
9240
1A00
ENDCHAR
STARTCHAR Kcommaaccent
ENCODING 310
SWIDTH 524 0
DWIDTH 9 0
BBX 9 18 0 -6
BITMAP
600400
601800
207000
309000
318000
260000
2D0000
2C0000
2D5540
1AAA80
180000
080000
000000
000000
00D000
00D000
00C000
008000
ENDCHAR
STARTCHAR kcommaaccent
ENCODING 311
SWIDTH 428 0
DWIDTH 8 0
BBX 7 20 0 -6
BITMAP
2000
3000
3000
3004
701C
7038
60B0
61D0
6340
6E00
7800
7D00
62E4
9018
4000
0000
0340
0240
0200
0200
ENDCHAR
STARTCHAR Lacute
ENCODING 313
SWIDTH 537 0
DWIDTH 10 0
BBX 10 13 0 0
BITMAP
002400
00A000
604000
600000
700000
700000
700000
700000
700000
7001D0
701D00
36E000
390000
ENDCHAR
STARTCHAR lacute
ENCODING 314
SWIDTH 137 0
DWIDTH 2 0
BBX 3 20 0 0
BITMAP
24
A0
40
00
00
90
50
50
60
20
20
20
20
20
20
30
30
30
30
20
ENDCHAR
STARTCHAR Lcommaaccent
ENCODING 315
SWIDTH 537 0
DWIDTH 10 0
BBX 10 17 0 -6
BITMAP
600000
600000
700000
700000
700000
700000
700000
7001D0
701D00
36E000
390000
000000
000000
00D000
009000
008000
008000
ENDCHAR
STARTCHAR lcommaaccent
ENCODING 316
SWIDTH 137 0
DWIDTH 2 0
BBX 2 21 0 -6
BITMAP
90
50
50
60
20
20
20
20
20
20
30
30
30
30
20
00
00
60
60
60
50
ENDCHAR
STARTCHAR Lcaron
ENCODING 317
SWIDTH 537 0
DWIDTH 10 0
BBX 10 17 0 0
BITMAP
100000
241800
085000
024000
000000
000000
600000
600000
700000
700000
700000
700000
700000
7001D0
701D00
36E000
390000
ENDCHAR
STARTCHAR Ldot
ENCODING 319
SWIDTH 537 0
DWIDTH 10 0
BBX 10 11 0 0
BITMAP
600000
600000
700000
700000
700000
700000
709000
7001D0
701D00
36E000
390000
ENDCHAR
STARTCHAR ldot
ENCODING 320
SWIDTH 267 0
DWIDTH 5 0
BBX 4 15 0 0
BITMAP
90
50
50
60
20
20
20
20
20
20
33
30
30
30
20
ENDCHAR
STARTCHAR Lslash
ENCODING 321
SWIDTH 537 0
DWIDTH 10 0
BBX 11 11 -1 0
BITMAP
180000
180000
1C0000
1C0000
1C0000
1DB800
6E9000
5C0074
1C0740
0DB800
0E4000
ENDCHAR
STARTCHAR lslash
ENCODING 322
SWIDTH 137 0
DWIDTH 2 0
BBX 7 15 -2 0
BITMAP
0900
0500
0500
0600
0200
0200
0200
0200
0200
0364
1B90
A700
0300
0300
0200
ENDCHAR
STARTCHAR Nacute
ENCODING 323
SWIDTH 541 0
DWIDTH 10 0
BBX 9 15 0 0
BITMAP
008000
028200
010240
500240
740240
7C0140
7A0140
324180
30D180
307180
241980
240A80
240280
1801C0
140000
ENDCHAR
STARTCHAR nacute
ENCODING 324
SWIDTH 483 0
DWIDTH 9 0
BBX 8 13 0 0
BITMAP
0090
0180
0114
50BC
61C5
6346
6306
7603
3903
3C03
3803
3803
2401
ENDCHAR
STARTCHAR Ncommaaccent
ENCODING 325
SWIDTH 541 0
DWIDTH 10 0
BBX 9 20 0 -6
BITMAP
000200
000240
500240
740240
7C0140
7A0140
324180
30D180
307180
241980
240A80
240280
1801C0
140000
000000
000000
00D000
009000
008000
008000
ENDCHAR
STARTCHAR ncommaaccent
ENCODING 326
SWIDTH 483 0
DWIDTH 9 0
BBX 8 17 0 -6
BITMAP
0014
50BC
61C5
6346
6306
7603
3903
3C03
3803
3803
2401
0000
0000
01C0
01C0
0180
0140
ENDCHAR
STARTCHAR Ncaron
ENCODING 327
SWIDTH 541 0
DWIDTH 10 0
BBX 9 17 0 0
BITMAP
040000
080900
022400
018200
000240
500240
740240
7C0140
7A0140
324180
30D180
307180
241980
240A80
240280
1801C0
140000
ENDCHAR
STARTCHAR ncaron
ENCODING 328
SWIDTH 483 0
DWIDTH 9 0
BBX 8 15 0 0
BITMAP
1000
1808
0560
0280
0014
50BC
61C5
6346
6306
7603
3903
3C03
3803
3803
2401
ENDCHAR
STARTCHAR napostrophe
ENCODING 329
SWIDTH 483 0
DWIDTH 9 0
BBX 8 15 0 0
BITMAP
0900
0900
0900
0800
0014
50BC
61C5
6346
6306
7603
3903
3C03
3803
3803
2401
ENDCHAR
STARTCHAR Omacron
ENCODING 332
SWIDTH 382 0
DWIDTH 7 0
BBX 8 15 0 0
BITMAP
0015
2AA9
0000
07D0
0D74
2424
3018
6018
6018
9024
9024
9030
90A0
65C0
2E00
ENDCHAR
STARTCHAR omacron
ENCODING 333
SWIDTH 266 0
DWIDTH 5 0
BBX 7 14 -1 0
BITMAP
0054
AAA4
0000
0000
0A40
0D80
1890
1450
2450
2490
2490
24C0
2A80
1E00
ENDCHAR
STARTCHAR Obreve
ENCODING 334
SWIDTH 382 0
DWIDTH 7 0
BBX 7 15 0 0
BITMAP
24A0
0B80
0100
07D0
0D74
2424
3018
6018
6018
9024
9024
9030
90A0
65C0
2E00
ENDCHAR
STARTCHAR obreve
ENCODING 335
SWIDTH 266 0
DWIDTH 5 0
BBX 5 14 0 0
BITMAP
0040
6180
2F00
0400
2900
3600
6240
5140
9140
9240
9240
9300
AA00
7800
ENDCHAR
STARTCHAR Ohungarumlaut
ENCODING 336
SWIDTH 382 0
DWIDTH 7 0
BBX 7 16 0 0
BITMAP
0098
02A8
0120
0000
07D0
0D74
2424
3018
6018
6018
9024
9024
9030
90A0
65C0
2E00
ENDCHAR
STARTCHAR ohungarumlaut
ENCODING 337
SWIDTH 266 0
DWIDTH 5 0
BBX 5 13 0 0
BITMAP
1940
3740
1500
2900
3600
6240
5140
9140
9240
9240
9300
AA00
7800
ENDCHAR
STARTCHAR OE
ENCODING 338
SWIDTH 732 0
DWIDTH 13 0
BBX 13 13 0 0
BITMAP
00101900
07F9E000
0D7E4000
24280000
30180000
60181800
6019A000
902E0000
902C0000
903C0640
90AC1900
658DA000
2E0E0000
ENDCHAR
STARTCHAR oe
ENCODING 339
SWIDTH 628 0
DWIDTH 11 0
BBX 12 10 0 0
BITMAP
290680
361DA0
6274A0
51B640
91F800
92D009
92D018
939070
AA6180
782900
ENDCHAR
STARTCHAR Racute
ENCODING 340
SWIDTH 503 0
DWIDTH 9 0
BBX 9 17 0 0
BITMAP
002400
00A000
004000
71A900
7A5780
740240
600900
606000
664000
780000
740000
6B4000
61B400
601B40
600140
600000
500000
ENDCHAR
STARTCHAR racute
ENCODING 341
SWIDTH 396 0
DWIDTH 7 0
BBX 7 13 0 0
BITMAP
01C0
0340
0100
0000
51F8
6740
6A00
2900
3900
2C00
2C00
1C00
1800
ENDCHAR
STARTCHAR Rcommaaccent
ENCODING 342
SWIDTH 503 0
DWIDTH 9 0
BBX 9 20 0 -6
BITMAP
71A900
7A5780
740240
600900
606000
664000
780000
740000
6B4000
61B400
601B40
600140
600000
500000
000000
000000
01C000
00C000
008000
004000
ENDCHAR
STARTCHAR rcommaaccent
ENCODING 343
SWIDTH 396 0
DWIDTH 7 0
BBX 7 15 0 -6
BITMAP
51F8
6740
6A00
2900
3900
2C00
2C00
1C00
1800
0000
0100
0300
0300
0300
0100
ENDCHAR
STARTCHAR Rcaron
ENCODING 344
SWIDTH 503 0
DWIDTH 9 0
BBX 9 19 0 0
BITMAP
040000
090600
022400
019000
000000
71A900
7A5780
740240
600900
606000
664000
780000
740000
6B4000
61B400
601B40
600140
600000
500000
ENDCHAR
STARTCHAR rcaron
ENCODING 345
SWIDTH 396 0
DWIDTH 7 0
BBX 7 14 0 0
BITMAP
2024
1890
0600
0000
0000
51F8
6740
6A00
2900
3900
2C00
2C00
1C00
1800
ENDCHAR
STARTCHAR Sacute
ENCODING 346
SWIDTH 541 0
DWIDTH 10 0
BBX 10 16 0 0
BITMAP
002000
00A000
004000
00AD00
064400
180000
300000
900000
900000
A00000
2A5400
005A80
0000D0
000740
01A400
050000
ENDCHAR
STARTCHAR sacute
ENCODING 347
SWIDTH 366 0
DWIDTH 7 0
BBX 7 14 0 -1
BITMAP
0180
0740
0000
0000
06D0
2800
7000
9000
A6F0
2964
0070
01D0
0B40
0400
ENDCHAR
STARTCHAR Scircumflex
ENCODING 348
SWIDTH 541 0
DWIDTH 10 0
BBX 10 19 0 0
BITMAP
005000
00A400
024800
060600
080140
000000
00AD00
064400
180000
300000
900000
900000
A00000
2A5400
005A80
0000D0
000740
01A400
050000
ENDCHAR
STARTCHAR scircumflex
ENCODING 349
SWIDTH 366 0
DWIDTH 7 0
BBX 7 16 0 -1
BITMAP
0500
0A40
1490
2024
5014
0000
06D0
2800
7000
9000
A6F0
2964
0070
01D0
0B40
0400
ENDCHAR
STARTCHAR Scedilla
ENCODING 350
SWIDTH 541 0
DWIDTH 10 0
BBX 10 18 0 -5
BITMAP
00AD00
064400
180000
300000
900000
900000
A00000
2A5400
005A80
0000D0
000740
01BC00
051800
000E00
0006D0
0000A0
0006E0
000500
ENDCHAR
STARTCHAR scedilla
ENCODING 351
SWIDTH 366 0
DWIDTH 7 0
BBX 7 15 0 -6
BITMAP
06D0
2800
7000
9000
A6F0
2964
0070
01D0
0B40
0900
0640
02E0
0038
01B8
0650
ENDCHAR
STARTCHAR Scaron
ENCODING 352
SWIDTH 541 0
DWIDTH 10 0
BBX 10 17 0 0
BITMAP
040000
090A00
022400
019000
00AD00
064400
180000
300000
900000
900000
A00000
2A5400
005A80
0000D0
000740
01A400
050000
ENDCHAR
STARTCHAR scaron
ENCODING 353
SWIDTH 366 0
DWIDTH 7 0
BBX 7 15 0 -1
BITMAP
4000
6020
1580
0A00
0000
06D0
2800
7000
9000
A6F0
2964
0070
01D0
0B40
0400
ENDCHAR
STARTCHAR Tcommaaccent
ENCODING 354
SWIDTH 595 0
DWIDTH 11 0
BBX 13 19 0 -6
BITMAP
00155A40
1ABEA400
65180000
00180000
000C0000
000C0000
000C0000
00090000
00090000
00090000
00060000
00060000
00020000
00000000
00000000
00034000
00024000
00020000
00020000
ENDCHAR
STARTCHAR tcommaaccent
ENCODING 355
SWIDTH 268 0
DWIDTH 5 0
BBX 6 20 -1 -6
BITMAP
0800
0C00
0C00
0C00
0EA0
2E40
AC00
0C00
0C00
0C00
0C00
0900
0900
0900
0400
0000
0700
0300
0200
0100
ENDCHAR
STARTCHAR Tcaron
ENCODING 356
SWIDTH 595 0
DWIDTH 11 0
BBX 13 18 0 0
BITMAP
00400000
00906000
00224000
00090000
00000000
00155A40
1ABEA400
65180000
00180000
000C0000
000C0000
000C0000
00090000
00090000
00090000
00060000
00060000
00020000
ENDCHAR
STARTCHAR Tbar
ENCODING 358
SWIDTH 595 0
DWIDTH 11 0
BBX 13 13 0 0
BITMAP
00155A40
1ABEA400
65180000
00180000
016FD000
015C0000
000C0000
00090000
00090000
00090000
00060000
00060000
00020000
ENDCHAR
STARTCHAR Utilde
ENCODING 360
SWIDTH 450 0
DWIDTH 8 0
BBX 8 17 0 -2
BITMAP
1A45
358D
10B8
0000
5009
600A
600D
600D
601D
601D
602D
6039
2065
3586
1A06
0002
0002
ENDCHAR
STARTCHAR utilde
ENCODING 361
SWIDTH 387 0
DWIDTH 7 0
BBX 7 13 0 0
BITMAP
6914
9738
42E0
0000
5010
6020
6060
6060
6060
60A0
21F0
32B0
1E24
ENDCHAR
STARTCHAR Umacron
ENCODING 362
SWIDTH 450 0
DWIDTH 8 0
BBX 8 16 0 -2
BITMAP
0014
2AA8
0000
5009
600A
600D
600D
601D
601D
602D
6039
2065
3586
1A06
0002
0002
ENDCHAR
STARTCHAR umacron
ENCODING 363
SWIDTH 387 0
DWIDTH 7 0
BBX 7 14 0 0
BITMAP
0054
6AA4
0000
0000
0000
5010
6020
6060
6060
6060
60A0
21F0
32B0
1E24
ENDCHAR
STARTCHAR Ubreve
ENCODING 364
SWIDTH 450 0
DWIDTH 8 0
BBX 8 15 0 -2
BITMAP
0924
03E0
5009
600A
600D
600D
601D
601D
602D
6039
2065
3586
1A06
0002
0002
ENDCHAR
STARTCHAR ubreve
ENCODING 365
SWIDTH 387 0
DWIDTH 7 0
BBX 7 14 0 0
BITMAP
0010
1860
0BD0
0100
0000
5010
6020
6060
6060
6060
60A0
21F0
32B0
1E24
ENDCHAR
STARTCHAR Uring
ENCODING 366
SWIDTH 450 0
DWIDTH 8 0
BBX 8 16 0 -2
BITMAP
0AA0
0C30
0A90
5009
600A
600D
600D
601D
601D
602D
6039
2065
3586
1A06
0002
0002
ENDCHAR
STARTCHAR uring
ENCODING 367
SWIDTH 387 0
DWIDTH 7 0
BBX 7 12 0 0
BITMAP
1ED0
2460
1A90
5010
6020
6060
6060
6060
60A0
21F0
32B0
1E24
ENDCHAR
STARTCHAR Uhungarumlaut
ENCODING 368
SWIDTH 450 0
DWIDTH 8 0
BBX 8 17 0 -2
BITMAP
0260
0AA0
0480
0000
5009
600A
600D
600D
601D
601D
602D
6039
2065
3586
1A06
0002
0002
ENDCHAR
STARTCHAR uhungarumlaut
ENCODING 369
SWIDTH 387 0
DWIDTH 7 0
BBX 7 12 0 0
BITMAP
0940
1A80
1200
5010
6020
6060
6060
6060
60A0
21F0
32B0
1E24
ENDCHAR
STARTCHAR Uogonek
ENCODING 370
SWIDTH 450 0
DWIDTH 8 0
BBX 10 16 0 -5
BITMAP
500900
600A00
600D00
600D00
601D00
601D00
602D00
603900
206500
358600
1A0600
000A00
001A00
002400
002590
001B80
ENDCHAR
STARTCHAR uogonek
ENCODING 371
SWIDTH 387 0
DWIDTH 7 0
BBX 8 13 0 -4
BITMAP
5010
6020
6060
6060
6060
60A0
21F0
32B0
1E34
0090
0180
0181
00BE
ENDCHAR
STARTCHAR Wcircumflex
ENCODING 372
SWIDTH 878 0
DWIDTH 16 0
BBX 15 20 0 -1
BITMAP
00020000
00068000
00086000
00242800
00200800
00000004
0000000C
00000008
6001C018
7002D024
2402A030
18063020
1C092460
0D081890
0A180C80
06240680
07300380
03A00140
01D00000
00400000
ENDCHAR
STARTCHAR wcircumflex
ENCODING 373
SWIDTH 566 0
DWIDTH 10 0
BBX 10 17 0 0
BITMAP
008000
01A000
021800
050600
080100
000000
000000
000000
50D090
70F090
25A490
198C90
0D8690
0B8290
0781D0
034060
014000
ENDCHAR
STARTCHAR Ycircumflex
ENCODING 374
SWIDTH 483 0
DWIDTH 9 0
BBX 9 20 0 0
BITMAP
014000
029000
092400
080900
240500
000000
000140
000200
400200
500600
340900
1C0C00
071800
02F400
00B000
00A000
009000
00C000
018000
024000
ENDCHAR
STARTCHAR ycircumflex
ENCODING 375
SWIDTH 363 0
DWIDTH 7 0
BBX 7 24 0 -7
BITMAP
0500
0A40
2480
6060
8014
0000
0000
0010
0020
A020
3420
1830
0930
0730
02F0
00F0
0070
0030
0020
0060
0060
0060
0050
0050
ENDCHAR
STARTCHAR Ydieresis
ENCODING 376
SWIDTH 483 0
DWIDTH 9 0
BBX 9 14 0 0
BITMAP
011140
062200
400200
500600
340900
1C0C00
071800
02F400
00B000
00A000
009000
00C000
018000
024000
ENDCHAR
STARTCHAR Zacute
ENCODING 377
SWIDTH 670 0
DWIDTH 12 0
BBX 12 16 0 0
BITMAP
001800
003400
001000
155550
2AAAF0
0001D0
000340
000A00
002800
007000
00D000
024000
0A0000
180000
755555
7FEAA9
ENDCHAR
STARTCHAR zacute
ENCODING 378
SWIDTH 618 0
DWIDTH 11 0
BBX 12 13 0 0
BITMAP
001800
003400
001000
000000
006C00
1BAC00
642800
007000
009000
00C000
024014
035AF9
03E900
ENDCHAR
STARTCHAR Zdotaccent
ENCODING 379
SWIDTH 670 0
DWIDTH 12 0
BBX 12 14 0 0
BITMAP
002800
155550
2AAAF0
0001D0
000340
000A00
002800
007000
00D000
024000
0A0000
180000
755555
7FEAA9
ENDCHAR
STARTCHAR zdotaccent
ENCODING 380
SWIDTH 618 0
DWIDTH 11 0
BBX 12 11 0 0
BITMAP
003400
000000
006C00
1BAC00
642800
007000
009000
00C000
024014
035AF9
03E900
ENDCHAR
STARTCHAR Zcaron
ENCODING 381
SWIDTH 670 0
DWIDTH 12 0
BBX 12 17 0 0
BITMAP
010000
008090
006600
002800
155550
2AAAF0
0001D0
000340
000A00
002800
007000
00D000
024000
0A0000
180000
755555
7FEAA9
ENDCHAR
STARTCHAR zcaron
ENCODING 382
SWIDTH 618 0
DWIDTH 11 0
BBX 12 14 0 0
BITMAP
040000
050600
025800
009000
000000
006C00
1BAC00
642800
007000
009000
00C000
024014
035AF9
03E900
ENDCHAR
STARTCHAR florin
ENCODING 402
SWIDTH 345 0
DWIDTH 6 0
BBX 6 21 0 -5
BITMAP
0740
0EC0
0C40
1C00
1C00
1800
1810
19F0
2E40
6800
0800
0800
0C00
0C00
0C00
0C00
0C00
0D00
0D00
AC00
6400
ENDCHAR
STARTCHAR AEacute
ENCODING 508
SWIDTH 708 0
DWIDTH 13 0
BBX 13 17 0 0
BITMAP
00240000
00A00000
00400000
04000000
1C206800
1D3B8000
2A280000
26640000
25A40400
34E46000
30AA4000
30BC0000
36B80140
74380A00
60286400
501E8000
50190000
ENDCHAR
STARTCHAR aeacute
ENCODING 509
SWIDTH 705 0
DWIDTH 13 0
BBX 13 13 0 0
BITMAP
00060000
001D0000
00040000
0192F400
07AA1C00
0DAC7400
28BE8000
30FD0000
62B40340
97340A00
CD242800
E829A000
60150000
ENDCHAR
STARTCHAR Oslashacute
ENCODING 510
SWIDTH 382 0
DWIDTH 7 0
BBX 7 18 0 -2
BITMAP
0090
0280
0100
0010
07E0
0DB4
24A4
3198
6158
6218
9224
9524
9830
98A0
79C0
2E00
2000
1000
ENDCHAR
STARTCHAR oslashacute
ENCODING 511
SWIDTH 266 0
DWIDTH 5 0
BBX 5 16 0 -2
BITMAP
0600
0D00
0400
0040
2A80
3700
6340
5640
9940
9A40
A640
B300
AA00
B800
8000
4000
ENDCHAR
STARTCHAR Scommaaccent
ENCODING 536
SWIDTH 541 0
DWIDTH 10 0
BBX 10 19 0 -6
BITMAP
00AD00
064400
180000
300000
900000
900000
A00000
2A5400
005A80
0000D0
000740
01A400
050000
000000
000000
00D000
009000
008000
008000
ENDCHAR
STARTCHAR scommaaccent
ENCODING 537
SWIDTH 366 0
DWIDTH 7 0
BBX 7 15 0 -6
BITMAP
06D0
2800
7000
9000
A6F0
2964
0070
01D0
0B40
0400
0000
0600
0600
0600
0500
ENDCHAR
STARTCHAR circumflex
ENCODING 710
SWIDTH 390 0
DWIDTH 7 0
BBX 7 5 0 12
BITMAP
0600
0A40
1890
2024
5004
ENDCHAR
STARTCHAR caron
ENCODING 711
SWIDTH 390 0
DWIDTH 7 0
BBX 6 4 1 11
BITMAP
4000
9060
2140
0900
ENDCHAR
STARTCHAR breve
ENCODING 728
SWIDTH 390 0
DWIDTH 7 0
BBX 5 3 1 10
BITMAP
9240
3E00
0400
ENDCHAR
STARTCHAR dotaccent
ENCODING 729
SWIDTH 128 0
DWIDTH 2 0
BBX 2 1 0 10
BITMAP
60
ENDCHAR
STARTCHAR ring
ENCODING 730
SWIDTH 266 0
DWIDTH 5 0
BBX 5 3 0 9
BITMAP
7B40
9240
6A00
ENDCHAR
STARTCHAR ogonek
ENCODING 731
SWIDTH 366 0
DWIDTH 7 0
BBX 5 6 1 -5
BITMAP
0400
2800
3000
6000
3B80
0500
ENDCHAR
STARTCHAR tilde
ENCODING 732
SWIDTH 458 0
DWIDTH 8 0
BBX 8 3 0 10
BITMAP
1A05
729D
10B4
ENDCHAR
STARTCHAR hungarumlaut
ENCODING 733
SWIDTH 239 0
DWIDTH 4 0
BBX 4 3 0 8
BITMAP
26
AA
48
ENDCHAR
STARTCHAR Wgrave
ENCODING 7808
SWIDTH 878 0
DWIDTH 16 0
BBX 15 18 0 -1
BITMAP
00024000
00018000
00004000
00000004
0000000C
00000008
6001C018
7002D024
2402A030
18063020
1C092460
0D081890
0A180C80
06240680
07300380
03A00140
01D00000
00400000
ENDCHAR
STARTCHAR wgrave
ENCODING 7809
SWIDTH 566 0
DWIDTH 10 0
BBX 10 13 0 0
BITMAP
00C000
00A000
000000
000000
50D090
70F090
25A490
198C90
0D8690
0B8290
0781D0
034060
014000
ENDCHAR
STARTCHAR Wacute
ENCODING 7810
SWIDTH 878 0
DWIDTH 16 0
BBX 15 17 0 -1
BITMAP
00024000
00060000
00040004
0000000C
00000008
6001C018
7002D024
2402A030
18063020
1C092460
0D081890
0A180C80
06240680
07300380
03A00140
01D00000
00400000
ENDCHAR
STARTCHAR wacute
ENCODING 7811
SWIDTH 566 0
DWIDTH 10 0
BBX 10 13 0 0
BITMAP
002400
007000
004000
000000
50D090
70F090
25A490
198C90
0D8690
0B8290
0781D0
034060
014000
ENDCHAR
STARTCHAR Wdieresis
ENCODING 7812
SWIDTH 878 0
DWIDTH 16 0
BBX 15 17 0 -1
BITMAP
00051000
00056000
00000004
0000000C
00000008
6001C018
7002D024
2402A030
18063020
1C092460
0D081890
0A180C80
06240680
07300380
03A00140
01D00000
00400000
ENDCHAR
STARTCHAR wdieresis
ENCODING 7813
SWIDTH 566 0
DWIDTH 10 0
BBX 10 14 0 0
BITMAP
014400
015800
000000
000000
000000
50D090
70F090
25A490
198C90
0D8690
0B8290
0781D0
034060
014000
ENDCHAR
STARTCHAR Ygrave
ENCODING 7922
SWIDTH 483 0
DWIDTH 9 0
BBX 9 17 0 0
BITMAP
024000
00C000
000000
000140
000200
400200
500600
340900
1C0C00
071800
02F400
00B000
00A000
009000
00C000
018000
024000
ENDCHAR
STARTCHAR ygrave
ENCODING 7923
SWIDTH 363 0
DWIDTH 7 0
BBX 6 20 0 -7
BITMAP
0C00
0600
0100
0010
0020
A020
3420
1830
0930
0730
02F0
00F0
0070
0030
0020
0060
0060
0060
0050
0050
ENDCHAR
STARTCHAR endash
ENCODING 8211
SWIDTH 399 0
DWIDTH 7 0
BBX 7 3 0 3
BITMAP
0068
1B90
6400
ENDCHAR
STARTCHAR emdash
ENCODING 8212
SWIDTH 549 0
DWIDTH 10 0
BBX 9 3 0 3
BITMAP
000540
16BA40
650000
ENDCHAR
STARTCHAR quoteleft
ENCODING 8216
SWIDTH 155 0
DWIDTH 3 0
BBX 2 5 0 6
BITMAP
60
60
60
20
10
ENDCHAR
STARTCHAR quoteright
ENCODING 8217
SWIDTH 155 0
DWIDTH 3 0
BBX 2 5 0 6
BITMAP
60
60
60
20
10
ENDCHAR
STARTCHAR quotesinglbase
ENCODING 8218
SWIDTH 155 0
DWIDTH 3 0
BBX 2 5 0 0
BITMAP
60
30
30
30
20
ENDCHAR
STARTCHAR quotedblleft
ENCODING 8220
SWIDTH 212 0
DWIDTH 4 0
BBX 4 5 0 9
BITMAP
54
59
69
69
20
ENDCHAR
STARTCHAR quotedblright
ENCODING 8221
SWIDTH 212 0
DWIDTH 4 0
BBX 4 5 0 9
BITMAP
54
59
69
69
20
ENDCHAR
STARTCHAR quotedblbase
ENCODING 8222
SWIDTH 212 0
DWIDTH 4 0
BBX 4 5 0 0
BITMAP
54
55
65
25
20
ENDCHAR
STARTCHAR dagger
ENCODING 8224
SWIDTH 268 0
DWIDTH 5 0
BBX 6 15 -1 -1
BITMAP
0800
0C00
0C00
0C00
0EA0
2E40
AC00
0C00
0C00
0C00
0C00
0900
0900
0900
0400
ENDCHAR
STARTCHAR daggerdbl
ENCODING 8225
SWIDTH 326 0
DWIDTH 6 0
BBX 6 15 0 -1
BITMAP
0800
0C00
0C00
0C00
0EA0
6E40
AC10
1EE0
7D00
0C00
0C00
0C00
0C00
0800
0400
ENDCHAR
STARTCHAR bullet
ENCODING 8226
SWIDTH 189 0
DWIDTH 3 0
BBX 3 3 0 4
BITMAP
14
7C
24
ENDCHAR
STARTCHAR ellipsis
ENCODING 8230
SWIDTH 387 0
DWIDTH 7 0
BBX 7 1 0 0
BITMAP
6324
ENDCHAR
STARTCHAR guilsinglleft
ENCODING 8249
SWIDTH 409 0
DWIDTH 7 0
BBX 6 10 1 2
BITMAP
0010
0070
01D0
0A00
2800
D000
A000
1E00
02D0
0050
ENDCHAR
STARTCHAR guilsinglright
ENCODING 8250
SWIDTH 450 0
DWIDTH 8 0
BBX 6 10 1 2
BITMAP
9000
7800
0B40
00A0
0030
0090
0740
1D00
B400
8000
ENDCHAR
STARTCHAR fraction
ENCODING 8260
SWIDTH 306 0
DWIDTH 6 0
BBX 5 15 0 -2
BITMAP
0040
0080
0140
0200
0200
0500
0900
0800
1800
2400
2000
6000
5000
8000
4000
ENDCHAR
STARTCHAR Euro
ENCODING 8364
SWIDTH 589 0
DWIDTH 11 0
BBX 10 13 0 0
BITMAP
002E00
00A140
008000
014000
020000
076400
7E4000
051400
0AA400
AD0010
090070
0601D0
02FE00
ENDCHAR
STARTCHAR trademark
ENCODING 8482
SWIDTH 1278 0
DWIDTH 23 0
BBX 23 14 0 0
BITMAP
000001400080
00155BD001C0
1ABEA6B002C0
651801580280
0018014C0690
000C01860950
000C00830850
000C00819850
000900C0E460
000900C06020
000900C00030
000600C00030
000600D00034
000200D00024
ENDCHAR
STARTCHAR minus
ENCODING 8722
SWIDTH 358 0
DWIDTH 6 0
BBX 5 2 1 4
BITMAP
6A80
5400
ENDCHAR
STARTCHAR commaaccent
ENCODING 63171
SWIDTH 450 0
DWIDTH 8 0
BBX 2 4 3 -6
BITMAP
D0
90
80
80
ENDCHAR
STARTCHAR fi
ENCODING 64257
SWIDTH 409 0
DWIDTH 7 0
BBX 7 16 0 0
BITMAP
0740
0EC0
0C40
1C20
1C00
1800
1824
19F4
2E64
6824
0824
0C24
0C24
0C24
0C14
0814
ENDCHAR
STARTCHAR fl
ENCODING 64258
SWIDTH 416 0
DWIDTH 8 0
BBX 7 16 0 0
BITMAP
0740
0EE0
0C64
1C14
1C14
1814
1814
19F8
2E58
6808
0808
0C08
0C08
0C08
0C18
0818
ENDCHAR
STARTCHAR .notdef
ENCODING -1
SWIDTH 450 0
DWIDTH 8 0
BBX 1 1 0 0
BITMAP
00
ENDCHAR
STARTCHAR .null
ENCODING -1
SWIDTH 0 0
DWIDTH 0 0
BBX 1 1 0 0
BITMAP
00
ENDCHAR
STARTCHAR nonmarkingreturn
ENCODING -1
SWIDTH 450 0
DWIDTH 8 0
BBX 1 1 0 0
BITMAP
00
ENDCHAR
ENDFONT
